<svg xmlns="http://www.w3.org/2000/svg" viewBox="0 0 919 495">
  <rect width="919" height="495" fill="white"/>
  <rect x="119" y="88" width="681" height="319" rx="84" fill="#F2EEF1"/>
  <rect x="187" y="146" width="160" height="160" rx="34" fill="#714B67"/>
  <rect x="379" y="146" width="160" height="160" rx="34" fill="#8F8F8F"/>
  <rect x="571" y="146" width="160" height="160" rx="34" fill="#714B67"/>
  <path d="M267 176H299C315.6 176 329 189.4 329 206V238C329 254.6 315.6 268 299 268H267C250.4 268 237 254.6 237 238V206C237 189.4 250.4 176 267 176Z" fill="white"/>
  <path d="M459 176H491C507.6 176 521 189.4 521 206V238C521 254.6 507.6 268 491 268H459C442.4 268 429 254.6 429 238V206C429 189.4 442.4 176 459 176Z" fill="white"/>
  <path d="M651 176H683C699.6 176 713 189.4 713 206V238C713 254.6 699.6 268 683 268H651C634.4 268 621 254.6 621 238V206C621 189.4 634.4 176 651 176Z" fill="white"/>
</svg>
